<svg width="90.000000" height="20.000000" viewBox="0 0 90 20" fill="none" xmlns="http://www.w3.org/2000/svg" xmlns:xlink="http://www.w3.org/1999/xlink">
	<desc>
			Created with Pixso.
	</desc>
	<defs/>
	<path id="cebra" d="M13.68 12.45C13.12 15.38 11.12 16.24 9.22 16.24C6.59 16.24 4.58 14.05 4.58 9.97C4.58 6.02 6.61 3.76 9.17 3.76C11.22 3.76 13.07 4.9 13.56 7.54L17.81 7.54C17.21 3.14 13.91 0 9.32 0C3.57 0 0 3.86 0 9.97C0 16.15 3.47 20 9.2 20C13.83 20 17.26 16.93 17.94 12.45L13.68 12.45ZM20.12 19.65L34.21 19.65L34.21 15.62L24.45 15.62L24.45 11.73L33.68 11.73L33.68 7.7L24.45 7.7L24.45 4.32L34.21 4.32L34.21 0.32L20.12 0.32L20.12 19.65ZM45.27 19.65L36.93 19.65L36.93 0.32L44.94 0.32C48.97 0.32 51.96 1.28 51.96 5.33C51.96 7.12 51.2 8.42 49.78 9.36C51.5 10 52.69 11.36 52.69 13.7C52.69 18.05 49.73 19.65 45.27 19.65ZM66.28 19.65L75.98 19.65L77.07 16.21L84.17 16.21L85.28 19.65L90 19.65L83.05 0.32L78.28 0.32L71.37 19.64L66.83 11.62C68.94 10.77 70.43 9.14 70.43 6.29C70.43 1.49 66.86 0.32 62.09 0.32L55.02 0.32L55.02 19.65L59.36 19.65L59.36 12.37L62.3 12.37L66.28 19.65ZM45.09 4.15L41.26 4.15L41.26 8.05L45.09 8.05C46.61 8.05 47.45 7.28 47.45 6.08C47.45 4.87 46.61 4.15 45.09 4.15ZM62.22 4.15C64.27 4.15 65.84 4.56 65.84 6.34C65.84 8.18 64.27 8.53 62.22 8.53L59.36 8.53L59.36 4.15L62.22 4.15ZM83 12.5L80.64 5.14L78.26 12.5L83 12.5ZM45.32 11.43L41.26 11.43L41.26 15.81L45.32 15.81C47.17 15.81 48.11 14.98 48.11 13.62C48.11 12.26 47.17 11.43 45.32 11.43Z" fill="#FFFFFF" fill-opacity="1.000000" fill-rule="evenodd"/>
</svg>
